<svg xmlns="http://www.w3.org/2000/svg" width="32" height="32" viewBox="0 0 32 32" fill="none">
  <path d="M16 2C8.268 2 2 8.268 2 16C2 23.732 8.268 30 16 30C23.732 30 30 23.732 30 16C30 8.268 23.732 2 16 2Z" fill="#0A0440"/>
  <path d="M16.5 7C13.8 7 11.5 9.3 11.5 12C11.5 14.7 13.8 17 16.5 17C19.2 17 21.5 14.7 21.5 12C21.5 9.3 19.2 7 16.5 7Z" fill="#34D1D1"/>
  <path d="M16.5 19C13.8 19 11.5 21.3 11.5 24C11.5 24.3 11.6 24.7 11.7 25H21.3C21.4 24.7 21.5 24.3 21.5 24C21.5 21.3 19.2 19 16.5 19Z" fill="#0087E6"/>
</svg>